<svg width="36" height="36" viewBox="0 0 36 36" fill="none" xmlns="http://www.w3.org/2000/svg">
<path d="M17.9858 0C23.2512 0 28.5165 0 33.7819 0C35.1425 0 36 0.857143 36 2.22143C36 12.7429 36 23.2643 36 33.7857C36 35.1286 35.1425 36 33.8173 36C23.2724 36 12.7276 36 2.18268 36C0.871654 36 0 35.1286 0 33.8143C0 23.2714 0 12.7214 0 2.17857C0 0.864286 0.871654 0 2.18268 0C7.45512 0 12.7205 0 17.9858 0ZM15.3992 26.2857C15.2929 26.2571 15.2362 26.2429 15.1795 26.2357C14.1307 26.0571 13.1102 25.8 12.1394 25.3214C10.0063 24.2571 8.73071 22.5571 8.51102 20.1714C8.40473 19.0071 8.47559 17.8143 8.56772 16.6429C8.67402 15.3357 9.04252 14.1 10.0276 13.1357C10.1055 13.0571 10.1126 12.8286 10.0701 12.6929C9.63071 11.4571 9.67323 10.2214 10.0559 8.97857C10.2047 8.50714 10.226 8.5 10.7079 8.66429C11.5512 8.94286 12.2386 9.45 12.8197 10.1071C13.1315 10.4571 13.422 10.8286 13.663 11.1214C14.1591 10.9357 14.6055 10.7143 15.0803 10.6071C16.6181 10.25 18.1772 10.3071 19.7362 10.4C20.7071 10.4571 21.6638 10.5929 22.4717 11.1786C22.826 10.7571 23.1591 10.3286 23.5346 9.93571C24.1157 9.32857 24.7961 8.86429 25.611 8.62857C25.8732 8.55 26.0504 8.58571 26.1496 8.89286C26.5535 10.1643 26.6244 11.4429 26.1354 12.7C26.0362 12.95 26.0929 13.1 26.2559 13.2571C26.8937 13.8714 27.2409 14.6429 27.4323 15.4929C27.7937 17.1071 27.8787 18.75 27.6732 20.3929C27.4606 22.1 26.6669 23.5143 25.285 24.5714C24.1441 25.45 22.8331 25.9214 21.4299 26.1643C21.2244 26.2 21.026 26.2429 20.7992 26.2857C21.3945 27.15 21.6 28.0786 21.6142 29.0571C21.6354 30.8929 21.6213 32.7214 21.6213 34.5571C21.6213 34.6929 21.6213 34.8357 21.6213 35.0143C21.7913 35.0143 21.9189 35.0143 22.0465 35.0143C25.9583 35.0143 29.863 35.0143 33.7748 35.0143C34.6181 35.0143 35.0291 34.5929 35.0291 33.7357C35.0291 23.25 35.0291 12.7643 35.0291 2.27143C35.0291 1.42143 34.611 1.00714 33.7677 1.00714C23.2441 1 12.7488 1 2.24646 1C1.40315 1 0.992126 1.41429 0.992126 2.27143C0.992126 12.7571 0.992126 23.2429 0.992126 33.7357C0.992126 34.5857 1.40315 35.0071 2.25354 35.0071C6.22205 35.0071 10.1906 35.0071 14.1591 35.0071C14.2866 35.0071 14.4142 35.0071 14.5417 35.0071C14.5417 33.8571 14.5417 32.7429 14.5417 31.6214C14.1307 31.6643 13.7409 31.7286 13.3583 31.75C11.2819 31.8714 9.62362 31.1357 8.60315 29.2571C7.90158 27.9714 7.29213 26.6429 6.0378 25.7857C5.97402 25.7429 5.88898 25.6 5.91732 25.5571C5.95984 25.4786 6.07323 25.3929 6.15827 25.3857C6.48425 25.3786 6.82441 25.3571 7.14331 25.4214C8.09291 25.6143 8.72362 26.2357 9.26221 27.0214C9.62362 27.55 10.0276 28.1 10.5307 28.4857C11.6504 29.3429 12.9402 29.4357 14.2724 29.0429C14.4709 28.9857 14.5772 28.8929 14.6055 28.6571C14.6764 27.8214 14.8394 27.0071 15.3992 26.2857Z" fill="#382D3F"/>
</svg>
