<svg width="49" height="48" viewBox="0 0 49 48" fill="none" xmlns="http://www.w3.org/2000/svg">
<path d="M44.25 0H4.25C2.05 0 0.25 1.8 0.25 4V44C0.25 46.2 2.05 48 4.25 48H44.25C46.45 48 48.25 46.2 48.25 44V4C48.25 1.8 46.45 0 44.25 0ZM28.65 29C29.25 29.5 29.65 31.2 29.65 32V39H25.65H21.65C21.65 39 21.65 36.6 21.65 35C16.15 36.2 14.65 32 14.65 32C13.65 30 12.65 29 12.65 29C10.65 27.8 12.65 28 12.65 28C14.65 28 15.65 30 15.65 30C17.45 33 20.55 32.5 21.65 32C21.65 31 22.05 29.5 22.65 29C18.25 28.5 14.65 26 14.65 21C14.65 16 15.65 15 16.65 14C16.45 13.5 15.65 11.7 16.65 9C16.65 9 18.65 9 20.65 12C21.65 11 24.65 11 25.65 11C26.65 11 29.65 11 30.65 12C32.65 9 34.65 9 34.65 9C35.75 11.7 34.85 13.5 34.65 14C35.65 15 36.65 16 36.65 21C36.65 26 33.05 28.5 28.65 29Z" fill="#382D3F"/>
</svg>
