<svg width="36" height="36" viewBox="0 0 36 36" fill="none" xmlns="http://www.w3.org/2000/svg">
<g clip-path="url(#clip0_259_928)">
<path fill-rule="evenodd" clip-rule="evenodd" d="M1.81003 36H34.11C34.3486 36 34.5847 35.9529 34.805 35.8613C35.0253 35.7697 35.2252 35.6355 35.3934 35.4663C35.5616 35.2972 35.6948 35.0965 35.7851 34.8757C35.8755 34.655 35.9213 34.4185 35.92 34.18V18C35.92 17.8674 35.8673 17.7402 35.7736 17.6464C35.6798 17.5527 35.5526 17.5 35.42 17.5C35.2882 17.5026 35.1625 17.5561 35.0693 17.6493C34.9761 17.7425 34.9226 17.8682 34.92 18V34.18C34.92 34.2864 34.8991 34.3917 34.8584 34.49C34.8177 34.5882 34.758 34.6775 34.6828 34.7528C34.6076 34.828 34.5183 34.8876 34.42 34.9283C34.3217 34.969 34.2164 34.99 34.11 34.99H1.81003C1.70366 34.99 1.59833 34.969 1.50005 34.9283C1.40178 34.8876 1.31249 34.828 1.23727 34.7528C1.16206 34.6775 1.10239 34.5882 1.06169 34.49C1.02098 34.3917 1.00003 34.2864 1.00003 34.18V1.81C1.00003 1.59517 1.08537 1.38915 1.23727 1.23724C1.38918 1.08534 1.5952 1 1.81003 1H17.89C18.0226 1 18.1498 0.947322 18.2436 0.853553C18.3373 0.759785 18.39 0.632608 18.39 0.5C18.39 0.367392 18.3373 0.240215 18.2436 0.146447C18.1498 0.0526784 18.0226 0 17.89 0H1.81003C1.32999 0 0.869605 0.190696 0.530164 0.530137C0.190724 0.869578 2.76269e-05 1.32996 2.76269e-05 1.81V34.18C-0.00129025 34.4185 0.0445541 34.655 0.134925 34.8757C0.225296 35.0965 0.35841 35.2972 0.526616 35.4663C0.694821 35.6355 0.894799 35.7697 1.11505 35.8613C1.33531 35.9529 1.57149 36 1.81003 36ZM35.8701 8.37006V2.56006C35.8714 2.23091 35.8077 1.90475 35.6827 1.60028C35.5576 1.29581 35.3737 1.01903 35.1414 0.785823C34.9091 0.552616 34.6331 0.367573 34.3291 0.241311C34.0252 0.11505 33.6992 0.0500553 33.3701 0.0500579H27.5701C26.9071 0.0222102 26.2601 0.258895 25.7716 0.708045C25.283 1.15719 24.9929 1.78202 24.9651 2.44506C24.9373 3.1081 25.1739 3.75505 25.6231 4.24358C26.0722 4.73211 26.6971 5.02221 27.3601 5.05006L15.8901 16.5401C15.4353 17.0122 15.1842 17.6441 15.1908 18.2996C15.1974 18.9551 15.4612 19.5818 15.9254 20.0447C16.3896 20.5075 17.017 20.7696 17.6726 20.7743C18.3281 20.7791 18.9592 20.5262 19.4301 20.0701L30.8701 8.60006C30.9006 9.2631 31.1932 9.88687 31.6836 10.3341C31.9265 10.5556 32.2105 10.7271 32.5196 10.8388C32.8287 10.9504 33.1568 11.0002 33.4851 10.9851C34.1481 10.9546 34.7719 10.6619 35.2192 10.1715C35.4407 9.92868 35.6121 9.64461 35.7238 9.33552C35.8355 9.02643 35.8852 8.69836 35.8701 8.37006Z" fill="#382D3F"/>
</g>
<defs>
<clipPath id="clip0_259_928">
<rect width="36" height="36" fill="white"/>
</clipPath>
</defs>
</svg>
