<svg width="48" height="48" viewBox="0 0 48 48" fill="none" xmlns="http://www.w3.org/2000/svg">
<path fill-rule="evenodd" clip-rule="evenodd" d="M42.1375 0C45.375 0 48 2.62534 48 5.86326V42.1367C48 45.3747 45.375 48 42.1375 48H5.8625C2.625 48 0 45.3747 0 42.1367V5.86326C0 2.62534 2.625 0 5.8625 0H42.1375ZM15.0438 39.6864V18.5212H8.00625V39.6864H15.0438V39.6864ZM40.4062 39.6864V27.5536C40.4062 21.0527 36.9375 18.0273 32.3063 18.0273C28.575 18.0273 26.9 20.0776 25.9688 21.5216V18.5274H18.9375C19.0312 20.5152 18.9375 39.6927 18.9375 39.6927H25.9688V27.8661C25.9688 27.2348 26.0125 26.6035 26.2 26.1472C26.7063 24.8845 27.8688 23.5718 29.8063 23.5718C32.35 23.5718 33.3688 25.5158 33.3688 28.3599V39.6864H40.4062V39.6864ZM11.575 8.31983C9.16875 8.31983 7.59375 9.90129 7.59375 11.9766C7.59375 14.0081 9.11875 15.6333 11.4813 15.6333H11.525C13.975 15.6333 15.5063 14.0081 15.5063 11.9766C15.4625 9.90129 13.9813 8.32608 11.575 8.31983Z" fill="#382D3F"/>
</svg>
