<svg width="128" height="36" viewBox="0 0 128 36" fill="none" xmlns="http://www.w3.org/2000/svg">
<path fill-rule="evenodd" clip-rule="evenodd" d="M70.5957 35.0815V21.7316L77.0177 16.8185L77.4685 34.5099C77.478 34.7896 77.5601 35.0614 77.7059 35.2962C77.8517 35.531 78.0558 35.72 78.2964 35.843C78.5369 35.9659 78.8049 36.0183 79.0718 35.9944C79.3386 35.9705 79.5941 35.8713 79.8112 35.7073L90.9409 27.2163V35.0815H98.405V25.4246C98.405 22.1181 98.6932 19.955 99.2549 18.9275C99.8116 17.8974 100.829 17.3824 102.307 17.3824C102.766 17.3267 103.231 17.4005 103.653 17.5961C104.075 17.7918 104.44 18.1021 104.709 18.4949C105.204 19.1979 105.448 20.573 105.448 22.6125V35.0815H112.927V25.3783C112.927 22.1027 113.215 19.955 113.762 18.9275C114.309 17.9 115.284 17.3824 116.762 17.3824C117.225 17.3429 117.689 17.428 118.11 17.6296C118.532 17.8311 118.898 18.1423 119.172 18.5335C119.605 19.2906 119.822 20.6503 119.822 22.6125V35.0815H127.53V21.5155C127.583 19.9319 127.474 18.3469 127.205 16.7875C127.011 15.8686 126.617 15.0091 126.052 14.2767C125.394 13.3795 124.536 12.6635 123.554 12.1908C122.309 11.6835 120.976 11.4557 119.642 11.5222C118.308 11.5888 117.002 11.9482 115.809 12.5771C114.503 13.3392 113.42 14.4581 112.676 15.8141C112.248 14.4825 111.401 13.3416 110.274 12.5771C108.926 11.8164 107.407 11.4482 105.877 11.511C104.399 11.464 102.941 11.8666 101.679 12.6698C100.37 13.5756 99.2859 14.7937 98.5159 16.2236V12.2217H90.9409V19.5382L83.3511 25.332V7.72556C83.3464 7.44254 83.2675 7.1663 83.1228 6.92699C82.9782 6.68769 82.7735 6.49452 82.531 6.36857C82.2885 6.24261 82.0175 6.18872 81.7477 6.21277C81.4779 6.23682 81.2196 6.33788 81.001 6.50493L70.5957 14.4532V0H63.2055V11.9591C63.2055 12.5385 63.235 13.3574 63.2941 14.184C63.3533 15.0106 63.405 15.6287 63.4641 16.0381C62.7232 14.6218 61.65 13.4255 60.3455 12.5617C58.9629 11.7935 57.4091 11.4254 55.8448 11.4955C54.5041 11.4565 53.1725 11.7359 51.95 12.3126C50.7275 12.8894 49.6461 13.7485 48.7872 14.8252C47.0885 16.9494 46.177 19.6377 46.0527 22.89V12.2217H38.8916V16.0226C38.1727 14.6291 37.1115 13.4611 35.8173 12.6389C34.5305 11.8679 33.0652 11.483 31.5827 11.5264C30.2006 11.4673 28.8232 11.7314 27.5511 12.2994C26.279 12.8674 25.1442 13.725 24.2294 14.8097C23.8646 15.2466 23.5362 15.7143 23.2442 16.2129L24.0299 14.4004C24.131 14.1653 24.1742 13.9076 24.1556 13.6506C24.1371 13.3936 24.0573 13.1456 23.9236 12.929C23.79 12.7125 23.6066 12.5344 23.3902 12.4108C23.1739 12.2873 22.9314 12.2223 22.6849 12.2218H16.9427L13.2476 22.3422C13.1853 22.5425 13.1112 22.7386 13.0259 22.9293C12.6669 23.8921 12.3851 24.8844 12.1834 25.8959C11.9631 24.8086 11.6666 23.7396 11.2966 22.6976C11.26 22.5761 11.2155 22.4574 11.1635 22.3422L7.42408 12.2218H1.47496C1.22844 12.2223 0.985953 12.2873 0.769591 12.4108C0.553229 12.5344 0.36986 12.7125 0.236178 12.929C0.102496 13.1456 0.0227473 13.3936 0.00419265 13.6506C-0.014362 13.9076 0.0288667 14.1653 0.129943 14.4004L9.02037 35.0815H15.0656L22.1629 18.7075C21.7128 20.1814 21.4877 21.8461 21.4877 23.7018C21.465 25.4113 21.6892 27.1146 22.1528 28.7542C22.5651 30.1586 23.227 31.469 24.1038 32.617C24.9356 33.7077 26.0011 34.5787 27.2142 35.1598C28.4273 35.7409 29.7541 36.0157 31.0875 35.9621C32.632 36.0001 34.1596 35.6195 35.5217 34.8574C36.9093 33.9918 38.0837 32.7986 38.9507 31.3732V35.0814H46.0527V24.5072C46.1767 27.8482 47.0833 30.5515 48.7724 32.6171C49.671 33.716 50.7962 34.588 52.0633 35.1673C53.3305 35.7467 54.7067 36.0184 56.0887 35.9622C57.5238 35.9971 58.938 35.5973 60.1607 34.8111C61.5149 33.9552 62.6569 32.7773 63.4937 31.3733V35.0815H70.5957ZM62.4295 19.4837C63.3682 20.6563 63.8416 22.1602 63.7523 23.6864C63.8436 25.2199 63.3703 26.7318 62.4295 27.9122C61.9504 28.4245 61.3743 28.8265 60.738 29.0926C60.1017 29.3587 59.4193 29.4829 58.7344 29.4573C58.0484 29.4933 57.363 29.3739 56.7252 29.1072C56.0874 28.8405 55.5123 28.4329 55.0393 27.9122C54.0952 26.7329 53.6168 25.2216 53.7017 23.6864C53.6187 22.1585 54.0972 20.6551 55.0393 19.4837C55.5126 18.9635 56.0878 18.5561 56.7255 18.2895C57.3632 18.0228 58.0484 17.9031 58.7344 17.9386C59.4193 17.913 60.1017 18.0373 60.738 18.3033C61.3743 18.5694 61.9504 18.9714 62.4295 19.4837ZM91.7833 6.33483H91.739C91.7325 6.72928 91.804 7.12088 91.9489 7.48512C92.0939 7.84936 92.3092 8.17839 92.5815 8.45162C92.8468 8.75084 93.1696 8.9881 93.5287 9.14786C93.8879 9.30762 94.2753 9.38628 94.6655 9.37868C95.0442 9.38748 95.4205 9.31371 95.7704 9.16207C96.1203 9.01044 96.4361 8.78427 96.6978 8.49797C96.9744 8.21808 97.1927 7.88145 97.3389 7.50921C97.4852 7.13697 97.5562 6.73715 97.5477 6.33483C97.5599 5.94054 97.4932 5.54792 97.3519 5.1821C97.2107 4.81628 96.998 4.48529 96.7274 4.21032C96.4553 3.933 96.1324 3.71612 95.7781 3.57273C95.4237 3.42934 95.0453 3.3624 94.6655 3.37596C94.286 3.36936 93.9092 3.44409 93.5584 3.59556C93.2076 3.74704 92.8902 3.97203 92.6258 4.25667C92.3505 4.51918 92.1326 4.84078 91.9872 5.19946C91.8418 5.55814 91.7722 5.94544 91.7833 6.33483ZM39.2537 23.64C39.3469 22.1066 38.8583 20.5967 37.8939 19.4373C37.4194 18.9187 36.8441 18.5124 36.2066 18.2459C35.5692 17.9794 34.8846 17.8588 34.1988 17.8922C33.5125 17.8536 32.8264 17.9719 32.1882 18.2387C31.5501 18.5055 30.9752 18.9146 30.5037 19.4373C29.5396 20.6164 29.0449 22.1372 29.1217 23.6863C29.0368 25.2296 29.5328 26.7463 30.5037 27.9122C30.9752 28.4349 31.5501 28.8439 32.1882 29.1108C32.8264 29.3776 33.5125 29.4959 34.1988 29.4573C34.8841 29.4862 35.5675 29.3636 36.2042 29.0973C36.841 28.831 37.4168 28.4272 37.8939 27.9122C38.8701 26.7323 39.3591 25.196 39.2537 23.64Z" fill="#F2F4F5"/>
</svg>
