<svg width="173" height="47" viewBox="0 0 173 47" fill="none" xmlns="http://www.w3.org/2000/svg">
<g clip-path="url(#clip0_248_599)">
<path d="M124.14 8.1999H124.2C124.185 7.69586 124.279 7.19454 124.476 6.73026C124.673 6.26597 124.967 5.84969 125.34 5.5099C125.698 5.14145 126.127 4.85022 126.602 4.65415C127.077 4.45809 127.586 4.36134 128.1 4.3699C128.614 4.35235 129.126 4.43898 129.605 4.62459C130.085 4.8102 130.522 5.09094 130.89 5.4499C131.256 5.80583 131.544 6.23426 131.735 6.70779C131.926 7.18131 132.016 7.68952 132 8.1999C132.012 8.72066 131.915 9.2382 131.717 9.72003C131.52 10.2019 131.224 10.6376 130.85 10.9999C130.496 11.3705 130.068 11.6632 129.595 11.8595C129.122 12.0558 128.612 12.1513 128.1 12.1399C127.572 12.1497 127.048 12.0479 126.562 11.8411C126.076 11.6343 125.639 11.3272 125.28 10.9399C124.912 10.5862 124.62 10.1603 124.424 9.68885C124.228 9.21737 124.131 8.71048 124.14 8.1999V8.1999Z" fill="#382D3F"/>
<path d="M162.14 45.41V29.27C162.14 26.73 161.847 24.97 161.26 23.99C160.889 23.4837 160.395 23.0808 159.824 22.82C159.254 22.5591 158.626 22.4489 158 22.5C156 22.5 154.68 23.17 153.94 24.5C153.2 25.83 152.81 28.61 152.81 32.85V45.41H142.69V29.27C142.69 26.63 142.36 24.85 141.69 23.94C141.326 23.4316 140.833 23.0299 140.261 22.7767C139.69 22.5235 139.061 22.4279 138.44 22.5C136.44 22.5 135.063 23.1667 134.31 24.5C133.55 25.83 133.16 28.63 133.16 32.91V45.41H123.06V15.82H133.31V21C134.352 19.1491 135.819 17.5725 137.59 16.4C139.298 15.3603 141.271 14.8392 143.27 14.9C145.341 14.8187 147.396 15.2954 149.22 16.28C150.746 17.2696 151.891 18.7464 152.47 20.47C153.477 18.7147 154.943 17.2664 156.71 16.28C158.324 15.4659 160.091 15.0007 161.897 14.9145C163.702 14.8284 165.506 15.1233 167.19 15.78C168.519 16.3918 169.68 17.3186 170.57 18.48C171.335 19.428 171.869 20.5406 172.13 21.73C172.494 23.7485 172.642 25.8002 172.57 27.85V45.41H162.14Z" fill="#382D3F"/>
<path d="M62.32 15.8199V45.4099H52.71V40.6099C51.5367 42.455 49.9476 43.9995 48.07 45.1199C46.2269 46.1065 44.1599 46.5991 42.07 46.5499C40.2657 46.6193 38.4704 46.2635 36.8289 45.5114C35.1873 44.7592 33.7456 43.6318 32.62 42.2199C31.4336 40.734 30.538 39.0377 29.98 37.2199C29.3528 35.0976 29.0493 32.8928 29.08 30.6799C29.08 25.8399 30.3167 22.0033 32.79 19.1699C34.0279 17.7659 35.5634 16.6558 37.2847 15.9206C39.0061 15.1853 40.8698 14.8435 42.74 14.9199C44.7461 14.8638 46.7288 15.362 48.47 16.3599C50.2213 17.4243 51.6572 18.9362 52.63 20.7399V15.8199H62.32ZM53.12 30.5999C53.2461 28.6152 52.585 26.6606 51.28 25.1599C50.6379 24.4886 49.8594 23.9628 48.9969 23.6178C48.1344 23.2728 47.2079 23.1166 46.28 23.1599C45.3513 23.11 44.4229 23.263 43.5594 23.6084C42.6959 23.9538 41.918 24.4833 41.28 25.1599C39.9754 26.6862 39.306 28.6548 39.41 30.6599C39.295 32.6575 39.9662 34.6208 41.28 36.1299C41.918 36.8066 42.6959 37.336 43.5594 37.6814C44.4229 38.0268 45.3513 38.1799 46.28 38.1299C47.2072 38.1674 48.132 38.0086 48.9936 37.664C49.8552 37.3193 50.6344 36.7965 51.28 36.1299C52.6009 34.6027 53.2626 32.6141 53.12 30.5999V30.5999Z" fill="#382D3F"/>
<path d="M95.5301 0V45.41H85.9201V40.61C84.7877 42.4275 83.2426 43.9521 81.4101 45.06C79.7556 46.0777 77.842 46.5952 75.9001 46.55C74.03 46.6228 72.1678 46.271 70.4532 45.5211C68.7386 44.7712 67.2161 43.6426 66.0001 42.22C63.5267 39.3267 62.2934 35.4667 62.3001 30.64C62.3001 25.9733 63.5401 22.1567 66.0201 19.19C67.1824 17.7962 68.6457 16.6842 70.2998 15.9377C71.954 15.1911 73.756 14.8295 75.5701 14.88C77.6868 14.7892 79.7893 15.2656 81.6601 16.26C83.4253 17.3782 84.8774 18.9266 85.8801 20.76C85.8001 20.23 85.7301 19.43 85.6501 18.36C85.5701 17.29 85.5301 16.23 85.5301 15.48V0H95.5301ZM86.2701 30.66C86.3909 28.6845 85.7503 26.7378 84.4801 25.22C83.8318 24.5569 83.0522 24.0365 82.1912 23.6921C81.3302 23.3477 80.4068 23.1869 79.4801 23.22C78.5518 23.1741 77.6246 23.329 76.7617 23.6742C75.8988 24.0193 75.1206 24.5466 74.4801 25.22C73.2053 26.7363 72.5579 28.6822 72.6701 30.66C72.5552 32.6472 73.2025 34.6035 74.4801 36.13C75.1202 36.8039 75.8984 37.3316 76.7614 37.6768C77.6244 38.022 78.5518 38.1766 79.4801 38.13C80.4068 38.1631 81.3302 38.0023 82.1912 37.6579C83.0522 37.3135 83.8318 36.7931 84.4801 36.13C85.7531 34.602 86.3935 32.645 86.2701 30.66V30.66Z" fill="#382D3F"/>
<path d="M129.17 30.7701L108 46.2201C107.706 46.4323 107.36 46.5607 106.999 46.5916C106.638 46.6226 106.276 46.5548 105.95 46.3956C105.625 46.2365 105.349 45.9919 105.151 45.6879C104.954 45.384 104.843 45.0322 104.83 44.6701L104.22 21.7701L93.48 29.6301L89 23.4801L109.61 8.42008C109.906 8.20385 110.255 8.07303 110.62 8.0419C110.985 8.01077 111.352 8.08053 111.68 8.24357C112.008 8.4066 112.285 8.65665 112.481 8.9664C112.677 9.27616 112.784 9.63373 112.79 10.0001V32.7901L124.43 24.2901L129.17 30.7701Z" fill="#382D3F"/>
<path d="M12.21 45.4101L0.179982 18.6401C0.0432111 18.3358 -0.0152834 18.0022 0.00982364 17.6695C0.0349307 17.3369 0.142842 17.0158 0.323733 16.7355C0.504624 16.4553 0.752748 16.2247 1.04552 16.0648C1.33828 15.9049 1.6664 15.8208 1.99998 15.8201H10.05L15.11 28.9201C15.1804 29.0691 15.2405 29.2228 15.29 29.3801C15.7908 30.7288 16.1919 32.1126 16.49 33.5201C16.7629 32.2107 17.1442 30.9263 17.63 29.6801C17.7455 29.4331 17.8457 29.1793 17.93 28.9201L22.93 15.8201H30.7C31.0336 15.8208 31.3617 15.9049 31.6544 16.0648C31.9472 16.2247 32.1953 16.4553 32.3762 16.7355C32.5571 17.0158 32.665 17.3369 32.6901 17.6695C32.7152 18.0022 32.6568 18.3358 32.52 18.6401L20.39 45.4101H12.21Z" fill="#382D3F"/>
</g>
<defs>
<clipPath id="clip0_248_599">
<rect width="172.57" height="46.55" fill="white"/>
</clipPath>
</defs>
</svg>
