<svg width="150" height="41" viewBox="0 0 150 41" fill="none" xmlns="http://www.w3.org/2000/svg">
<path fill-rule="evenodd" clip-rule="evenodd" d="M83.0235 39.4668V24.4481L90.5761 18.9208L91.1063 38.8237C91.1175 39.1384 91.214 39.4442 91.3855 39.7083C91.5569 39.9725 91.797 40.1851 92.0799 40.3234C92.3628 40.4617 92.678 40.5206 92.9918 40.4937C93.3055 40.4669 93.6061 40.3552 93.8614 40.1708L106.95 30.6184V39.4668H115.729V28.6028C115.729 24.8829 116.067 22.4494 116.728 21.2935C117.383 20.1346 118.579 19.5552 120.317 19.5552C120.857 19.4926 121.404 19.5756 121.901 19.7957C122.397 20.0158 122.826 20.3649 123.142 20.8068C123.724 21.5977 124.011 23.1447 124.011 25.4392V39.4668H132.807V28.5506C132.807 24.8655 133.146 22.4494 133.789 21.2935C134.432 20.1375 135.579 19.5552 137.317 19.5552C137.861 19.5108 138.407 19.6066 138.903 19.8333C139.399 20.06 139.829 20.4101 140.151 20.8502C140.661 21.7019 140.916 23.2316 140.916 25.4392V39.4668H149.981V24.205C150.043 22.4234 149.915 20.6403 149.598 18.886C149.371 17.8522 148.907 16.8853 148.242 16.0614C147.468 15.0519 146.46 14.2465 145.305 13.7147C143.841 13.144 142.274 12.8877 140.704 12.9625C139.135 13.0374 137.599 13.4418 136.196 14.1493C134.66 15.0066 133.387 16.2654 132.511 17.7909C132.008 16.2929 131.012 15.0093 129.687 14.1493C128.101 13.2935 126.315 12.8793 124.515 12.9499C122.778 12.897 121.063 13.3499 119.579 14.2536C118.039 15.2726 116.764 16.6429 115.859 18.2515V13.7495H106.95V21.9805L98.0245 28.4985V8.69127C98.019 8.37287 97.9261 8.0621 97.756 7.79288C97.5859 7.52367 97.3451 7.30635 97.0599 7.16465C96.7748 7.02295 96.4561 6.96232 96.1388 6.98938C95.8215 7.01643 95.5178 7.13013 95.2607 7.31806L83.0235 16.2599V0H74.3323V13.454C74.3323 14.1058 74.3671 15.0271 74.4366 15.9571C74.5061 16.887 74.567 17.5823 74.6365 18.0429C73.7651 16.4495 72.5031 15.1037 70.9688 14.1319C69.3429 13.2677 67.5155 12.8536 65.6759 12.9325C64.0992 12.8886 62.5331 13.2029 61.0954 13.8517C59.6577 14.5006 58.386 15.467 57.3758 16.6784C55.3781 19.0681 54.3061 22.0925 54.16 25.7514V13.7494H45.7382V18.0255C44.8927 16.4578 43.6447 15.1438 42.1227 14.2187C40.6093 13.3515 38.8861 12.9184 37.1426 12.9672C35.5172 12.9008 33.8974 13.1979 32.4013 13.8369C30.9053 14.4759 29.5707 15.4407 28.4948 16.661C28.0658 17.1524 27.6796 17.6786 27.3362 18.2396L28.2602 16.2005C28.379 15.936 28.4299 15.6461 28.4081 15.357C28.3862 15.0678 28.2924 14.7888 28.1352 14.5452C27.978 14.3016 27.7624 14.1012 27.5079 13.9622C27.2535 13.8233 26.9683 13.7501 26.6784 13.7495H19.9253L15.5797 25.135C15.5065 25.3603 15.4194 25.5809 15.319 25.7956C14.8968 26.8786 14.5654 27.995 14.3282 29.133C14.0691 27.9097 13.7205 26.7071 13.2852 25.5348C13.2422 25.3982 13.19 25.2646 13.1288 25.135L8.73104 13.7495H1.73462C1.44469 13.7501 1.15952 13.8233 0.905072 13.9622C0.650622 14.1012 0.434971 14.3016 0.277756 14.5452C0.12054 14.7888 0.0267518 15.0678 0.00493073 15.357C-0.0168903 15.6461 0.0339485 15.936 0.152819 16.2005L10.6083 39.4668H17.7177L26.0646 21.046C25.5351 22.7041 25.2704 24.5769 25.2704 26.6645C25.2438 28.5878 25.5075 30.504 26.0526 32.3486C26.5376 33.9284 27.316 35.4027 28.3471 36.6942C29.3254 37.9212 30.5784 38.9012 32.0051 39.5549C33.4318 40.2086 34.9921 40.5178 36.5603 40.4575C38.3767 40.5002 40.1732 40.0721 41.775 39.2146C43.4069 38.2409 44.788 36.8985 45.8077 35.2949V39.4667H54.16V27.5706C54.3058 31.3293 55.372 34.3705 57.3584 36.6943C58.4153 37.9306 59.7385 38.9115 61.2287 39.5633C62.7189 40.2151 64.3374 40.5208 65.9627 40.4576C67.6505 40.4968 69.3136 40.0471 70.7516 39.1626C72.3442 38.1997 73.6872 36.8746 74.6713 35.295V39.4668H83.0235ZM73.4198 21.9192C74.5238 23.2383 75.0805 24.9303 74.9755 26.6472C75.0828 28.3724 74.5262 30.0733 73.4198 31.4013C72.8563 31.9776 72.1788 32.4299 71.4305 32.7292C70.6822 33.0286 69.8796 33.1683 69.0742 33.1396C68.2673 33.18 67.4613 33.0457 66.7113 32.7457C65.9612 32.4456 65.2849 31.9871 64.7285 31.4013C63.6182 30.0746 63.0556 28.3744 63.1554 26.6472C63.0579 24.9283 63.6207 23.2371 64.7285 21.9192C65.2852 21.3339 65.9616 20.8757 66.7116 20.5757C67.4615 20.2757 68.2674 20.1411 69.0742 20.181C69.8796 20.1522 70.6822 20.292 71.4305 20.5913C72.1788 20.8906 72.8563 21.3429 73.4198 21.9192ZM107.941 7.1267H107.889C107.881 7.57045 107.965 8.01101 108.136 8.42078C108.306 8.83055 108.56 9.20071 108.88 9.50809C109.192 9.84472 109.571 10.1116 109.994 10.2914C110.416 10.4711 110.872 10.5596 111.331 10.551C111.776 10.5609 112.219 10.4779 112.63 10.3074C113.042 10.1368 113.413 9.88232 113.721 9.56024C114.046 9.24536 114.303 8.86665 114.475 8.44788C114.647 8.02911 114.73 7.5793 114.72 7.1267C114.735 6.68312 114.656 6.24143 114.49 5.82987C114.324 5.41832 114.074 5.04597 113.756 4.73662C113.436 4.42464 113.056 4.18064 112.639 4.01933C112.222 3.85801 111.777 3.78271 111.331 3.79797C110.884 3.79053 110.441 3.87461 110.029 4.04502C109.616 4.21542 109.243 4.46854 108.932 4.78876C108.608 5.08408 108.352 5.44589 108.181 5.8494C108.01 6.25292 107.928 6.68863 107.941 7.1267ZM46.1641 26.595C46.2736 24.87 45.6991 23.1713 44.5649 21.867C44.0068 21.2836 43.3302 20.8265 42.5806 20.5267C41.8309 20.2268 41.0258 20.0911 40.2193 20.1288C39.4121 20.0854 38.6052 20.2184 37.8548 20.5186C37.1043 20.8188 36.4282 21.2789 35.8737 21.867C34.7398 23.1935 34.1581 24.9044 34.2484 26.6472C34.1485 28.3833 34.7318 30.0896 35.8737 31.4013C36.4282 31.9893 37.1043 32.4495 37.8548 32.7497C38.6052 33.0499 39.4121 33.1829 40.2193 33.1395C41.0252 33.1721 41.8289 33.0341 42.5777 32.7345C43.3266 32.435 44.0038 31.9806 44.5649 31.4013C45.7129 30.0739 46.288 28.3456 46.1641 26.595Z" fill="url(#paint0_linear_390_825)"/>
<defs>
<linearGradient id="paint0_linear_390_825" x1="1.03654e-05" y1="40.5001" x2="16.4562" y2="-22.5439" gradientUnits="userSpaceOnUse">
<stop stop-color="#8DD0FC"/>
<stop offset="0.817708" stop-color="#DDB4F6"/>
</linearGradient>
</defs>
</svg>
