<svg width="24" height="24" viewBox="0 0 24 24" fill="none" xmlns="http://www.w3.org/2000/svg">
<path d="M20.2102 15.32C19.6264 16.7062 18.6877 17.9141 17.4885 18.8221C16.2893 19.7301 14.872 20.3061 13.3794 20.492C11.8868 20.678 10.3716 20.4673 8.9863 19.8813C7.60101 19.2953 6.39458 18.3546 5.48852 17.154C4.58247 15.9534 4.00877 14.5352 3.82521 13.0423C3.64165 11.5494 3.85471 10.0345 4.44294 8.65013C5.03116 7.26577 5.97377 6.06086 7.17584 5.15672C8.37792 4.25259 9.79701 3.68116 11.2902 3.49999C11.3938 3.48762 11.4987 3.50796 11.5901 3.55817C11.6816 3.60838 11.755 3.68594 11.8002 3.77999C11.8474 3.8723 11.8642 3.97721 11.848 4.07964C11.8318 4.18207 11.7836 4.27672 11.7102 4.34999C11.0972 4.95809 10.6124 5.6829 10.2843 6.48158C9.95628 7.28026 9.79165 8.1366 9.8002 8.99999C9.809 10.1348 10.1116 11.2481 10.6786 12.2312C11.2455 13.2143 12.0575 14.0338 13.0353 14.6098C14.0131 15.1859 15.1235 15.4988 16.2582 15.5181C17.393 15.5374 18.5133 15.2624 19.5102 14.72C19.6028 14.6722 19.7075 14.6534 19.811 14.6658C19.9144 14.6783 20.0117 14.7216 20.0902 14.79C20.1571 14.8587 20.2038 14.9445 20.2249 15.0381C20.2461 15.1316 20.241 15.2292 20.2102 15.32Z" fill="#F0EFED"/>
</svg>
