<svg width="27" height="27" viewBox="0 0 27 27" fill="none" xmlns="http://www.w3.org/2000/svg">
<path d="M13.5 19.125C16.6066 19.125 19.125 16.6066 19.125 13.5C19.125 10.3934 16.6066 7.875 13.5 7.875C10.3934 7.875 7.875 10.3934 7.875 13.5C7.875 16.6066 10.3934 19.125 13.5 19.125Z" fill="#F4F3F0"/>
<path d="M23.625 14.625H22.5C22.2016 14.625 21.9155 14.5065 21.7045 14.2955C21.4935 14.0845 21.375 13.7984 21.375 13.5C21.375 13.2016 21.4935 12.9155 21.7045 12.7045C21.9155 12.4935 22.2016 12.375 22.5 12.375H23.625C23.9234 12.375 24.2095 12.4935 24.4205 12.7045C24.6315 12.9155 24.75 13.2016 24.75 13.5C24.75 13.7984 24.6315 14.0845 24.4205 14.2955C24.2095 14.5065 23.9234 14.625 23.625 14.625ZM4.5 14.625H3.375C3.07663 14.625 2.79048 14.5065 2.5795 14.2955C2.36853 14.0845 2.25 13.7984 2.25 13.5C2.25 13.2016 2.36853 12.9155 2.5795 12.7045C2.79048 12.4935 3.07663 12.375 3.375 12.375H4.5C4.79837 12.375 5.08452 12.4935 5.29549 12.7045C5.50647 12.9155 5.625 13.2016 5.625 13.5C5.625 13.7984 5.50647 14.0845 5.29549 14.2955C5.08452 14.5065 4.79837 14.625 4.5 14.625ZM19.8675 8.2575C19.588 8.24485 19.3233 8.12853 19.125 7.93125C18.9155 7.72047 18.7979 7.43533 18.7979 7.13812C18.7979 6.84092 18.9155 6.55578 19.125 6.345L19.9237 5.54625C20.0246 5.42848 20.1487 5.33283 20.2883 5.26531C20.4279 5.19778 20.5799 5.15984 20.7348 5.15385C20.8897 5.14787 21.0442 5.17397 21.1886 5.23053C21.333 5.28709 21.4641 5.37288 21.5737 5.48252C21.6834 5.59215 21.7692 5.72327 21.8257 5.86764C21.8823 6.012 21.9084 6.1665 21.9024 6.32144C21.8964 6.47637 21.8585 6.62839 21.7909 6.76797C21.7234 6.90754 21.6278 7.03165 21.51 7.1325L20.7112 7.93125C20.6008 8.04106 20.4689 8.12676 20.3236 8.18292C20.1784 8.23908 20.0231 8.26447 19.8675 8.2575ZM6.345 21.78C6.19694 21.7809 6.05017 21.7525 5.91311 21.6965C5.77604 21.6405 5.65137 21.558 5.54625 21.4537C5.33672 21.243 5.21911 20.9578 5.21911 20.6606C5.21911 20.3634 5.33672 20.0783 5.54625 19.8675L6.345 19.125C6.56021 18.9407 6.83705 18.8444 7.12019 18.8553C7.40332 18.8663 7.6719 18.9836 7.87226 19.184C8.07262 19.3843 8.18999 19.6529 8.20093 19.9361C8.21186 20.2192 8.11555 20.496 7.93125 20.7112L7.1325 21.51C6.91418 21.6974 6.63237 21.794 6.345 21.78ZM13.5 5.625C13.2016 5.625 12.9155 5.50647 12.7045 5.29549C12.4935 5.08452 12.375 4.79837 12.375 4.5V3.375C12.375 3.07663 12.4935 2.79048 12.7045 2.5795C12.9155 2.36853 13.2016 2.25 13.5 2.25C13.7984 2.25 14.0845 2.36853 14.2955 2.5795C14.5065 2.79048 14.625 3.07663 14.625 3.375V4.5C14.625 4.79837 14.5065 5.08452 14.2955 5.29549C14.0845 5.50647 13.7984 5.625 13.5 5.625ZM13.5 24.75C13.2016 24.75 12.9155 24.6315 12.7045 24.4205C12.4935 24.2095 12.375 23.9234 12.375 23.625V22.5C12.375 22.2016 12.4935 21.9155 12.7045 21.7045C12.9155 21.4935 13.2016 21.375 13.5 21.375C13.7984 21.375 14.0845 21.4935 14.2955 21.7045C14.5065 21.9155 14.625 22.2016 14.625 22.5V23.625C14.625 23.9234 14.5065 24.2095 14.2955 24.4205C14.0845 24.6315 13.7984 24.75 13.5 24.75ZM7.1325 8.2575C6.83737 8.25626 6.55454 8.13909 6.345 7.93125L5.54625 7.1325C5.36195 6.91729 5.26564 6.64045 5.27657 6.35731C5.28751 6.07418 5.40488 5.8056 5.60524 5.60524C5.8056 5.40488 6.07418 5.28751 6.35731 5.27657C6.64045 5.26564 6.91729 5.36195 7.1325 5.54625L7.93125 6.345C8.14078 6.55578 8.25839 6.84092 8.25839 7.13812C8.25839 7.43533 8.14078 7.72047 7.93125 7.93125C7.82613 8.03552 7.70146 8.11801 7.56439 8.17399C7.42733 8.22998 7.28056 8.25836 7.1325 8.2575ZM20.655 21.78C20.3599 21.7788 20.077 21.6616 19.8675 21.4537L19.125 20.655C19.0061 20.4413 18.9601 20.1946 18.994 19.9524C19.0278 19.7102 19.1397 19.4856 19.3126 19.3126C19.4856 19.1397 19.7102 19.0278 19.9524 18.994C20.1946 18.9601 20.4413 19.0061 20.655 19.125L21.4537 19.9237C21.6633 20.1345 21.7809 20.4197 21.7809 20.7169C21.7809 21.0141 21.6633 21.2992 21.4537 21.51C21.2326 21.7001 20.9462 21.7969 20.655 21.78Z" fill="#F4F3F0"/>
</svg>
